
<global>
amp_veltrack=0
ampeg_release=0.45
</global>

<group>
group_label=PP
lpc_hicc1=42
lpc_locc1=0

<region>
hikey=a3
hivel=127
lokey=g#3
loop_end=243844
loop_mode=loop_continuous
loop_start=54316
loop_xfade=24918
lovel=1
lpc=hnMFQekCusFl9e5B8vGzwapQKUEG22XAJO4cQLTLWcCdGVhAXuWzv+a4+79winlA3eEewCqXML63UjRA766jwCnQoUAVm2rAZR08QESKm7+cg8G/KZUzQHqc77/shQw/
lpc_rms=-29.46
pitch_keycenter=a3
sample=Soloviolin2_nonvib_PP_A3.opus
</region>

<region>
hikey=a4
hivel=127
lokey=g#4
loop_end=236560
loop_mode=loop_continuous
loop_start=52694
loop_xfade=24174
lovel=1
lpc=20T5QKJDosFWRcVBB/edwXY3XEFfXifB6poNQSCo1sBFioNA7+NIwIEWU0D/fxPAQvoBP4U8iT8Tqly/FWJWv5I54z+9RvS+B942v5DNeT90K6e/1Q2HPyuQlr7m4iU9
lpc_rms=-28.95
pitch_keycenter=a4
sample=Soloviolin2_nonvib_PP_A4.opus
</region>

<region>
hikey=a5
hivel=127
lokey=g#5
loop_end=246387
loop_mode=loop_continuous
loop_start=54883
loop_xfade=25178
lovel=1
lpc=z3DRQAmNDcGcYRRBiQ2cwAz5j0CjG1zA2ieKQN+Kqb80rs8+pgHLP3PP/T6no46956yRPwRygT91vhg/n7OjPqVPtT5JBQJA0JR/v4AyhT+lnak/7Rt0PjO1Mb+GWC9A
lpc_rms=-30.36
pitch_keycenter=a5
sample=Soloviolin2_nonvib_PP_A5.opus
</region>

<region>
hikey=a6
hivel=127
lokey=g#6
loop_end=239827
loop_mode=loop_continuous
loop_start=53421
loop_xfade=24507
lovel=1
lpc=CWyHQX6Nj8GvghlBNn1cwCbPkD/n6FBAdXqQwOgANsBxnLdAWkOhv5UgFUC21x/Ao3KpQP5hMMGD2UnA5gxKQRYEKcE/Iv1ANgvBwDE7vT9ktKdAwrpZvyAZNMDrDys+
lpc_rms=-25.17
pitch_keycenter=a6
sample=Soloviolin2_nonvib_PP_A6.opus
</region>

<region>
hikey=b3
hivel=127
lokey=a#3
loop_end=243541
loop_mode=loop_continuous
loop_start=54249
loop_xfade=24887
lovel=1
lpc=q2eTQTWgS8K4bWpCNGYYwgRIjEEltCDBvaglQfQHMMFvgwlBKBZtwGC4a75R7k49ySNBQBlj1MAWKN5A4ODSv3fcmL+EgjHA+ebKQByItsDfQp0/32yCQCqTiMBhn6g/
lpc_rms=-25.12
pitch_keycenter=b3
sample=Soloviolin2_nonvib_PP_B3.opus
</region>

<region>
hikey=b4
hivel=127
lokey=a#4
loop_end=272034
loop_mode=loop_continuous
loop_start=60595
loop_xfade=27799
lovel=1
lpc=n8YUQbwSwcG1BN5BQ26VwTA+J0GUod/AnfuqQOEoJ8DyU68/DRpmwFBan0C+viTAk5yfP/guO8CVp5tAgGmvwFjbrUAvh5DAESMMQGCArT/2im3AufVOQOPQlb8i50Y+
lpc_rms=-31.30
pitch_keycenter=b4
sample=Soloviolin2_nonvib_PP_B4.opus
</region>

<region>
hikey=b5
hivel=127
lokey=a#5
loop_end=244018
loop_mode=loop_continuous
loop_start=54355
loop_xfade=24936
lovel=1
lpc=FFmMQUwTnsFVwHNBB90CwQRqVUCGLA8/rApJwO4ZpECJ0W3Ahr87vVcOuEBFZyDB6KhGQQMELMFRytxA/BOZv7O0VsCErMZAyMKvwF+7aECqWLO+eV1dwBUbE0FDdknB
lpc_rms=-26.84
pitch_keycenter=b5
sample=Soloviolin2_nonvib_PP_B5.opus
</region>

<region>
hikey=E7
hivel=127
lokey=a#6
loop_end=447913
loop_mode=loop_continuous
loop_start=99773
loop_xfade=45772
lovel=1
lpc=QGUoQVqkN8FemtVAbkRlwM853j+KPw0/eJSFv9+eLMDswzlAZV+wP3BZKcAZbl5Aa2QjwR6lB0H6MjzAf1UwP5is9z02m4W/+XE8P1UgQEBPOA3AuSYMwDmDNEDuIhvA
lpc_rms=-34.10
pitch_keycenter=B6
sample=Soloviolin2_nonvib_PP_B6.opus
</region>

<region>
hikey=c#4
hivel=127
lokey=c4
loop_end=239823
loop_mode=loop_continuous
loop_start=53420
loop_xfade=24507
lovel=1
lpc=Tj0lQtKu98Kp5CBDjHD1wukSd0LR9PfB1bj2QcQlEsKSyAJCec1qwRjL+cDFbIlBmLeawO/oNcHfD7RBKIXwwfrf70HMSLnBdVCAQXkCE8HrNGC+k8xNQOB2pLtuBhq/
lpc_rms=-17.09
pitch_keycenter=c#4
sample=Soloviolin2_nonvib_PP_C#4.opus
</region>

<region>
hikey=c#5
hivel=127
lokey=c5
loop_end=236271
loop_mode=loop_continuous
loop_start=52629
loop_xfade=24144
lovel=1
lpc=fbeZQSE1O8LG/FlC78wiwh1MrkGozQTB3NlXP4vi+7/STQZBnRkXwbTpsEC2OH8++kaIwGgY1D8fLg1BLjeDwca1hkFptznB2XzMQMdlxL9iII3AcmHsQLB27MAffZdA
lpc_rms=-20.92
pitch_keycenter=c#5
sample=Soloviolin2_nonvib_PP_C#5.opus
</region>

<region>
hikey=c#6
hivel=127
lokey=c6
loop_end=234110
loop_mode=loop_continuous
loop_start=52148
loop_xfade=23923
lovel=1
lpc=yDS2QR6GYsEHao1AEcKTwJn8mECIGC/AaAMfQARiuL8WuzlApM8XwG0Bc0DiAnDAF5iuQFRhk8BOO5RAjE40wLlNY0BN1CLAWO1XQMXTTsB5Y9dAHj9uwc3dxsBRSwVB
lpc_rms=-23.32
pitch_keycenter=c#6
sample=Soloviolin2_nonvib_PP_C#6.opus
</region>

<region>
hikey=d#4
hivel=127
lokey=d4
loop_end=239424
loop_mode=loop_continuous
loop_start=53331
loop_xfade=24466
lovel=1
lpc=pNCAQaSqMMIMuVNClBMTwnlQjUHhdUXBCaNqQds0VcEUtPRAVY8awDVWMj8uPz3ApM+4QL2v0cD59NRAcFiEwJXs4z8+sc6/YtwJQPHSQMDPbpu+RLDDQAq76sD+kVJA
lpc_rms=-25.48
pitch_keycenter=d#4
sample=Soloviolin2_nonvib_PP_D#4.opus
</region>

<region>
hikey=d#5
hivel=127
lokey=d5
loop_end=244472
loop_mode=loop_continuous
loop_start=54456
loop_xfade=24982
lovel=1
lpc=w7gcQSE9y8HyA/RBYhW6wdLnf0EiqT3BsyH0QM7BjsCIC3lAF5pTwG8aAECByvG/IYuNQNCr48CrigdB7M7ewC4gh0Cz143AgDvxQM3i88BfV6JAKhp9wNQra0DDdaO/
lpc_rms=-28.98
pitch_keycenter=d#5
sample=Soloviolin2_nonvib_PP_D#5.opus
</region>

<region>
hikey=d#6
hivel=127
lokey=d6
loop_end=237137
loop_mode=loop_continuous
loop_start=52822
loop_xfade=24233
lovel=1
lpc=E2VjQUCMccGRWClBE78BwcsFmkBb3lzAqYVTQF8pLcA6VidAxMu7v8s61D9GWwrAyClkQGLgO8CwRxJAykflv8m4W0AduYrAJUC7QKrsfcFx9ytBVq+HwI6gJkAHzXk+
lpc_rms=-30.76
pitch_keycenter=d#6
sample=Soloviolin2_nonvib_PP_D#6.opus
</region>

<region>
hikey=f4
hivel=127
lokey=e4
loop_end=239300
loop_mode=loop_continuous
loop_start=53304
loop_xfade=24454
lovel=1
lpc=GypGQR0oBML/ThtCRBXgwRr1hkGNmjfBU8TfQOLlncBPP+JAbF0MwUKn6UCA6YzAvYvbP4/wRb5RQbo/y49GwEeQUUCzwt2/O0nnPJxigD9clIHAN4H9QE3wA8FrM21A
lpc_rms=-31.06
pitch_keycenter=f4
sample=Soloviolin2_nonvib_PP_F4.opus
</region>

<region>
hikey=f5
hivel=127
lokey=e5
loop_end=233759
loop_mode=loop_continuous
loop_start=52070
loop_xfade=23887
lovel=1
lpc=Y0rjQMkgf8FyZIFBDTElwSEe4kAElovA4RzsP/gG4b8j4lBAGYWHwCFpp0BVcIfAfwfwP5kBgb/eZhlAAPUNwB1esT9nULi/q93KP6e/WL2beYW+3v7WPX95x77rLiU/
lpc_rms=-28.62
pitch_keycenter=f5
sample=Soloviolin2_nonvib_PP_F5.opus
</region>

<region>
hikey=f6
hivel=127
lokey=e6
loop_end=253413
loop_mode=loop_continuous
loop_start=56448
loop_xfade=25896
lovel=1
lpc=fivFQcCmzcEnRRJB7bZiv3MZMUCFfsC/PGsuvxT9h70rJKs/YSi+vdRA1T8UfgW/bhcJQMOHm79oQ0pAla4xwCYuzUAmhdTBbVCmQXYp3L6Nt27AfxWePxhbEr9y9kVA
lpc_rms=-25.28
pitch_keycenter=f6
sample=Soloviolin2_nonvib_PP_F6.opus
</region>

<region>
hivel=127
key=g3
loop_end=253176
loop_mode=loop_continuous
loop_start=56395
loop_xfade=25872
lovel=1
lpc=yKtqQXy9I8IRIE1CA1AcwjZsokHp8wPBM/6CQGwPoMBrod9AhgLLwCx5iEC9YvO/8p31Pv+8BMCVnrlAa13jwDCRzkCybo7AdobdP4pXYzwqnzzAIhjoQCQXA8FQlG5A
lpc_rms=-26.91
sample=Soloviolin2_nonvib_PP_G3.opus
</region>

<region>
hikey=g4
hivel=127
lokey=f#4
loop_end=246743
loop_mode=loop_continuous
loop_start=54962
loop_xfade=25214
lovel=1
lpc=kzsdQUbg1MFqywBCZtC3wX/6R0FXs+XAChWHQLl+JMBGUyVAUQ1/wAdEXEBxKR8+DaI0wECbDEA9xXg/bfuDwK943kBcXdTAcE2EP+QloEAqI8LA+J2BQPAHDcDo9z8/
lpc_rms=-29.18
pitch_keycenter=g4
sample=Soloviolin2_nonvib_PP_G4.opus
</region>

<region>
hikey=g5
hivel=127
lokey=f#5
loop_end=241613
loop_mode=loop_continuous
loop_start=53819
loop_xfade=24690
lovel=1
lpc=wgivQPnVE8E0tvdAW/dPwNOr5D/+tLG/crWtP9ULbD9XlSPAXOQQQLL/Lb/wI4Y/P0OIv7gsvz/Zn72/V7csQFTXLcBnl/s/cbgqP+kPcL+V7CU/zkQDPb4UyL6grYg/
lpc_rms=-29.73
pitch_keycenter=g5
sample=Soloviolin2_nonvib_PP_G5.opus
</region>

<region>
hikey=g6
hivel=127
lokey=f#6
loop_end=234084
loop_mode=loop_continuous
loop_start=52142
loop_xfade=23921
lovel=1
lpc=pdhYQYkxU8FV6MlAWllmwA7O9z862U5Au68GwJIcEMDoLDxAndBYvym7AECNzqS/MuxBQBymM8CRgrFAVvZhwfe6+EA26so/IGDTv+V0ZkCOM6XAUf4LQDzKQ0BFVIK/
lpc_rms=-29.09
pitch_keycenter=g6
sample=Soloviolin2_nonvib_PP_G6.opus
</region>
</group>

<group>
group_label=MF
lpc_hicc1=84
lpc_locc1=43

<region>
hikey=a3
hivel=127
lokey=g#3
loop_end=246084
loop_mode=loop_continuous
loop_start=54815
loop_xfade=25147
lovel=1
lpc=xN4EQXjTscHtAeNBnI6zwTS7REF0dbfA+TtxQNRGasBfIBBAVQUmPxBPQMAMCSdAsJqbvqkBsb/D6ARAKQMSwBHvEkDjNjzAE7CHQNmHScATDJY+qjiGP4cTEb+k4Iw+
lpc_rms=-25.16
pitch_keycenter=a3
sample=Soloviolin2_nonvib_MF_A3.opus
</region>

<region>
hikey=a4
hivel=127
lokey=g#4
loop_end=239085
loop_mode=loop_continuous
loop_start=53256
loop_xfade=24432
lovel=1
lpc=x2sLQdKiu8HYTutBoS+8wVItgkEGCVHBYGQQQWxgbcAQCKY/wwIBwLDMyD8uIYc/16QMwDjv5j8rtTW/37Emv1iW/T+PlDzA/XlxQA1qcMC9ViFACTi3vyxIcT8NLaG+
lpc_rms=-28.41
pitch_keycenter=a4
sample=Soloviolin2_nonvib_MF_A4.opus
</region>

<region>
hikey=a5
hivel=127
lokey=g#5
loop_end=238521
loop_mode=loop_continuous
loop_start=53130
loop_xfade=24374
lovel=1
lpc=5YvWQJymAMFGawJBiCGlwFLAzkDKY3PAhmE1QLgeS78j91ZA+ecEwFHnB0A59H8+9EboPyquab8T3ds/BRAfP6Kusj8dAHK/xO7bP6zi1D816ya/xSdfPxIu3T7ybApA
lpc_rms=-21.82
pitch_keycenter=a5
sample=Soloviolin2_nonvib_MF_A5.opus
</region>

<region>
hikey=a6
hivel=127
lokey=g#6
loop_end=240182
loop_mode=loop_continuous
loop_start=53500
loop_xfade=24544
lovel=1
lpc=+pa3QaQpgcFvhddAb39BPxTVO8AFX91AqtmiwO9bUMA00sNAHJ3Ovs3leUD5uBLAIPPsQIJjScG7fwLBhHuCQYRHM8EbWgNBSeIkwAZEsb8U+AhB5lIQv1QdEcAXlcQ+
lpc_rms=-18.86
pitch_keycenter=a6
sample=Soloviolin2_nonvib_MF_A6.opus
</region>

<region>
hikey=b3
hivel=127
lokey=a#3
loop_end=241809
loop_mode=loop_continuous
loop_start=53863
loop_xfade=24710
lovel=1
lpc=0lwgQd5h2sHJsg1CXpPuwW0YlkFYxkDBIw0PQc6SxsBnH4dA+wxMwNidOUCbixDAatybPpn4AD9WswdAPbfSwGXWC0EJ2dDA+ohTQEzKFMD5dKY/84giPyMEmL9q/wk/
lpc_rms=-24.09
pitch_keycenter=b3
sample=Soloviolin2_nonvib_MF_B3.opus
</region>

<region>
hikey=b4
hivel=127
lokey=a#4
loop_end=240757
loop_mode=loop_continuous
loop_start=53628
loop_xfade=24603
lovel=1
lpc=LiSUQMAdH8G+ZixB3N77wF7UnEB6IzTAV9PfP4eF879YGERAIJ4qwNTsaT9WFdI9JOYVvrxNAj+dnky+mfD/vOWCpD3gv8q+L52CP+XQTr9SjPq+gAM3P5oz5T5rbda+
lpc_rms=-26.25
pitch_keycenter=b4
sample=Soloviolin2_nonvib_MF_B4.opus
</region>

<region>
hikey=b5
hivel=127
lokey=a#5
loop_end=238406
loop_mode=loop_continuous
loop_start=53105
loop_xfade=24362
lovel=1
lpc=3urwQMLP9cCyhPZAA121wBMbrUCK1m3AywuDQNcgHsCitAdA+qPXvhDlmz9VwgS/mtq3PzDyCb8Y/Zo/qamavsk48D8vEQrANwNwQDMqUsACa5hAmNaWwNXTyUAZ3K3A
lpc_rms=-26.58
pitch_keycenter=b5
sample=Soloviolin2_nonvib_MF_B5.opus
</region>

<region>
hikey=E7
hivel=127
lokey=a#6
loop_end=238549
loop_mode=loop_continuous
loop_start=53137
loop_xfade=24377
lovel=1
lpc=VbdlQbr3JMGP6IVAjMjhv4Mbzj+O0Yw/AD5Jv+n1NcBvIeo/kp1vQGOdFsDUXaZA36FqwceOBkFqf2S/RfEfP2pC3z5oi7a/wiqtPwjUU0CswDK+sMdewA5n+z8PFgHA
lpc_rms=-26.78
pitch_keycenter=B6
sample=Soloviolin2_nonvib_MF_B6.opus
</region>

<region>
hikey=c#4
hivel=127
lokey=c4
loop_end=245360
loop_mode=loop_continuous
loop_start=54654
loop_xfade=25073
lovel=1
lpc=G2n0QXAcusJiJgFDcLvgwlMuikIupRLCMl2tQaWDY8Ej7UlBXuBewdAkUUEuRCzB3dILQTDIBcHeHFpBfPqgwTk9t0G45pvBxJBlQQOv+sBgv0XAp+kdQT3bA8HOAThA
lpc_rms=-15.90
pitch_keycenter=c#4
sample=Soloviolin2_nonvib_MF_C#4.opus
</region>

<region>
hikey=c#5
hivel=127
lokey=c5
loop_end=238521
loop_mode=loop_continuous
loop_start=53130
loop_xfade=24374
lovel=1
lpc=4apQQbMe6cG4CgBCQle5wV3lXEEhUBzB+wu9QA6kcsARh65AqnW8wDhVh0Ct10XA5LSeQNA/18CuY/ZA3EH3wJnO90CqZ5DAw35vPrgXEUD13TnAq8oXQKcgNcDrUyVA
lpc_rms=-18.62
pitch_keycenter=c#5
sample=Soloviolin2_nonvib_MF_C#5.opus
</region>

<region>
hikey=c#6
hivel=127
lokey=c6
loop_end=237855
loop_mode=loop_continuous
loop_start=52982
loop_xfade=24306
lovel=1
lpc=f9XNQWHVWcFOo57AKM/vP330zr2iDqI/K51+PP1STj+dpDQ/wKEyPpjPsj/EzAO/bjT6PzY9Kr9de9A/Xh0cvrSYnz+W3a++KbcAQKED9b8uX7NAu55Mwb0EXsECG4xB
lpc_rms=-20.39
pitch_keycenter=c#6
sample=Soloviolin2_nonvib_MF_C#6.opus
</region>

<region>
hikey=d#4
hivel=127
lokey=d4
loop_end=240280
loop_mode=loop_continuous
loop_start=53522
loop_xfade=24554
lovel=1
lpc=kI8dQVzT1sF7mghCzNLkwaPjoUGBt2vB05sdQTTbrcDMck5A7rYxwOwzCT+MpOE/2WHcPSSIOcAlJkdAeI8BwB13LEAltqHA+X7SQOOJnsAlSPE/GoVhv7QZGj8JtyS9
lpc_rms=-24.52
pitch_keycenter=d#4
sample=Soloviolin2_nonvib_MF_D#4.opus
</region>

<region>
hikey=d#5
hivel=127
lokey=d5
loop_end=235918
loop_mode=loop_continuous
loop_start=52551
loop_xfade=24108
lovel=1
lpc=dmDAQL9NYMEH1IdBfIhWwY//D0FGAbPA0FdUQEcGVcAy/HtA6hL2v6EGh7+oZAFAR4Fav6YbCL7t0WY/4UfBvmY4BT5/oUy/qjkFQEJSHsB/ees/BWq2vvAIwb5/Uxs/
lpc_rms=-24.39
pitch_keycenter=d#5
sample=Soloviolin2_nonvib_MF_D#5.opus
</region>

<region>
hikey=d#6
hivel=127
lokey=d6
loop_end=233191
loop_mode=loop_continuous
loop_start=51943
loop_xfade=23829
lovel=1
lpc=XgaHQaCrXcHtdXJAVTPWP/uRF8Cnmh8/Z1rePpaXzD1PrfQ+frMZP620M74S9HI/Y0apPH+rwj4BfS0/6wjnviVO7z/YVAbAB+GXQIx4hMGvLtBAj72UQNyBscBdmmpA
lpc_rms=-23.96
pitch_keycenter=d#6
sample=Soloviolin2_nonvib_MF_D#6.opus
</region>

<region>
hikey=f4
hivel=127
lokey=e4
loop_end=245480
loop_mode=loop_continuous
loop_start=54681
loop_xfade=25085
lovel=1
lpc=TEM0Qclg6sH2uAhC/QHTwWmHlEFJ0l3B5kcZQf7M/sBDhgRBcbjTwKgEOUD3MxE/7R4ywDYyV0ANSw3AUbvYP9zG07xUfVrAhvHLQLX6vsDTj4w/Ve1vQN2akcCluvw/
lpc_rms=-25.59
pitch_keycenter=f4
sample=Soloviolin2_nonvib_MF_F4.opus
</region>

<region>
hikey=f5
hivel=127
lokey=e5
loop_end=232005
loop_mode=loop_continuous
loop_start=51679
loop_xfade=23708
lovel=1
lpc=DVKxQMIcO8EGmjxB1sDgwDzNCUD6o6Q/96jQv90dYT61zHg//vkxv8mEizuS6bk/rQjRv8imaD0jZMM/eT4hv3Q0ML8LPoM/ALsDv4kthz/caNa/M1C/P7Rb7756Y6w+
lpc_rms=-24.48
pitch_keycenter=f5
sample=Soloviolin2_nonvib_MF_F5.opus
</region>

<region>
hikey=f6
hivel=127
lokey=e6
loop_end=222262
loop_mode=loop_continuous
loop_start=49509
loop_xfade=22712
lovel=1
lpc=0TVWQbVnNcGC2ZNAk2/fv6sOUL+e+aBALw+hwFiPlz810Ac9EqQVPzzvPj7oMLY+QuQNP3pLIb5KdKM/+4ePv+gyQ0AEfl3BRW4IQfUkUL7oiK2/8AuAQDpdw8DegaBA
lpc_rms=-25.83
pitch_keycenter=f6
sample=Soloviolin2_nonvib_MF_F6.opus
</region>

<region>
hivel=127
key=g3
loop_end=228205
loop_mode=loop_continuous
loop_start=50833
loop_xfade=23320
lovel=1
lpc=kmNnQYSrI8J/GFZC/jEywuuM4kEUX5DBDTFZQXWqL8HHgP9AnfiBwLVvA0C+pcS/7q2vP1QGIMDKMJBAHymfwJapukAxfcPAsZe9QB3I18AWP1VAGRaBQOUJ6cC+4GtA
lpc_rms=-23.24
sample=Soloviolin2_nonvib_MF_G3.opus
</region>

<region>
hikey=g4
hivel=127
lokey=f#4
loop_end=240318
loop_mode=loop_continuous
loop_start=53531
loop_xfade=24558
lovel=1
lpc=BQ4AQTSxnsGVAr9Be26ewRqQe0Elx07BAlsRQXWN4cBcRLVAHs5owBl+aj8HvSk/Gn9FvwGmhT0xArk/UKcCwKchBUDbHRnAfP9WQLTbHcCxuIC9jEiTP7iwBb85ViE+
lpc_rms=-25.58
pitch_keycenter=g4
sample=Soloviolin2_nonvib_MF_G4.opus
</region>

<region>
hikey=g5
hivel=127
lokey=f#5
loop_end=242611
loop_mode=loop_continuous
loop_start=54042
loop_xfade=24792
lovel=1
lpc=BAwqQPPXacCv81pAcLwawKPEB0DYcKG/QcWmPzMts79OmYU/dZksvqak177fogk/fA5BPoLPhL6MCtA+OAHePfnwIL2u8NU+Mx5CPay1+T5VUHq/e+i2P/wjmr9OLCc/
lpc_rms=-24.82
pitch_keycenter=g5
sample=Soloviolin2_nonvib_MF_G5.opus
</region>

<region>
hikey=g6
hivel=127
lokey=f#6
loop_end=240146
loop_mode=loop_continuous
loop_start=53492
loop_xfade=24540
lovel=1
lpc=KvNZQZ27AsHxGJ69ztTEPwE+Fb9a5vA/Dvq6v9A+kz6gPKo+GulLP5t8eD8H8/k9ITPoPwWJdr+CdH5AffRAwdbhC0DxmMtAagVOwHbAJEClyMe/L9nYP06teD/Hq+U+
lpc_rms=-24.39
pitch_keycenter=g6
sample=Soloviolin2_nonvib_MF_G6.opus
</region>
</group>

<group>
group_label=FF
lpc_hicc1=127
lpc_locc1=85

<region>
hikey=a3
hivel=127
lokey=g#3
loop_end=241885
loop_mode=loop_continuous
loop_start=53880
loop_xfade=24718
lovel=1
lpc=bXbVQLAFkcE52c1BvMPJwdePn0GlXGTBUBslQSpI88DSL7xAdkGawMwuNkCPfmG/um5jPqicl780USdAiSVEwMlwOkBwghPAzFKTP1IJDT9FBbu/Cy3SPxuJiL8jsvY+
lpc_rms=-20.23
pitch_keycenter=a3
sample=Soloviolin2_nonvib_FF_A3.opus
</region>

<region>
hikey=a4
hivel=127
lokey=g#4
loop_end=240167
loop_mode=loop_continuous
loop_start=53497
loop_xfade=24542
lovel=1
lpc=yTPbQAoAhsHj7ZtBUChYwYkGB0FccPPAS1S/QHmHG8DjAKy90oDOPoBFC8B+YYNAZjdwwPZfzj/y1us+KKCiv8uF4T+sf9W//qPDP8Ffn7+fs68/yhF+v+LpJz8Ir4a+
lpc_rms=-21.02
pitch_keycenter=a4
sample=Soloviolin2_nonvib_FF_A4.opus
</region>

<region>
hikey=a5
hivel=127
lokey=g#5
loop_end=245354
loop_mode=loop_continuous
loop_start=54653
loop_xfade=25072
lovel=1
lpc=lb6BQDCDosBqALtAsqA2wCwIvT9xbSk/X3OLPsZwOj8Fkdy9uBPQPw40Ur9YhIw/TxdVPxp5DL++INg/xaEEvtLqFT/QS58+Uu+TP47iCL96dlQ/qfPWP6AM07/WUhBA
lpc_rms=-16.23
pitch_keycenter=a5
sample=Soloviolin2_nonvib_FF_A5.opus
</region>

<region>
hikey=a6
hivel=127
lokey=g#6
loop_end=242386
loop_mode=loop_continuous
loop_start=53991
loop_xfade=24769
lovel=1
lpc=9o2IQXlf9cCdwa4/MToLQEid9D+Yt2BAYxtDwMlLiD+P5Uu/zt4lQLBpi0DuE9G/WQukQBtRA8HHxQfBSvQiQVhPiMB63Mg/DTNXwPT3ez+MQjtANS+DPmql7z8P3XLA
lpc_rms=-21.34
pitch_keycenter=a6
sample=Soloviolin2_nonvib_FF_A6.opus
</region>

<region>
hikey=b3
hivel=127
lokey=a#3
loop_end=243903
loop_mode=loop_continuous
loop_start=54329
loop_xfade=24924
lovel=1
lpc=TAEIQZJYxsFMBxBCc9kLwrNxzkG7yIDBOK4YQUSItcDnqTlAFvmbv72V+j4Pyz+/FlADQFvjesAA661Ah2a8wEi4t0A2DYzAydrFP2JymD8vXhrAPgMZQKU9/b9q5kA/
lpc_rms=-17.47
pitch_keycenter=b3
sample=Soloviolin2_nonvib_FF_B3.opus
</region>

<region>
hikey=b4
hivel=127
lokey=a#4
loop_end=238192
loop_mode=loop_continuous
loop_start=53057
loop_xfade=24340
lovel=1
lpc=ZPKHQF3XFsFgVi1B0ssFwTkvoED3bP+/sgbgve9Ggz9X1Ey/T54pP5HPeb+p6Ss/w+yTPp2PLL+Y1EQ/yTuCvwmhfz8E8vm+P1tEP4vbh797cqA/ByWsv7XfhD+4HMm+
lpc_rms=-21.46
pitch_keycenter=b4
sample=Soloviolin2_nonvib_FF_B4.opus
</region>

<region>
hikey=b5
hivel=127
lokey=a#5
loop_end=241936
loop_mode=loop_continuous
loop_start=53891
loop_xfade=24723
lovel=1
lpc=9d+UQEsRm79jK4NA+Wzbvk58akBRE9K9atJTQI2Zpz7xPCpA/QCOP6N8DkDYVGs/hJMrQLLJbj9uHwxAKoCRPyQ+JUBcxN4+wDtKQP+Xxz0tV1hAV/S2PSexVEA+Mrc9
lpc_rms=-19.93
pitch_keycenter=b5
sample=Soloviolin2_nonvib_FF_B5.opus
</region>

<region>
hikey=E7
hivel=127
lokey=a#6
loop_end=273131
loop_mode=loop_continuous
loop_start=60840
loop_xfade=27911
lovel=1
lpc=KWHlQZd6xsFGTiZBj0haQH//wD00ZptAUDypv31qGEB1xizAqHkJQah4VMBfDJhAZPnqwc6Ep0F05QrA5H3uwLaBgUB9ErjAae5KQJaazL92SGVA8Wu3wM8ydz+HfrE/
lpc_rms=-18.22
pitch_keycenter=B6
sample=Soloviolin2_nonvib_FF_B6.opus
</region>

<region>
hikey=c#4
hivel=127
lokey=c4
loop_end=242268
loop_mode=loop_continuous
loop_start=53965
loop_xfade=24757
lovel=1
lpc=maWmQeQJgcIkF8BCByK3wiatgEJ9XyXCdArmQYW9ocGBVlNBgu8gwWwnuUCJjzk++GcewKr4YMB9iURB5u11wbOyZUH8DibBMWugQJdKpL/3Hz5A+V2nwH/iT0AduyC/
lpc_rms=-12.82
pitch_keycenter=c#4
sample=Soloviolin2_nonvib_FF_C#4.opus
</region>

<region>
hikey=c#5
hivel=127
lokey=c5
loop_end=245788
loop_mode=loop_continuous
loop_start=54749
loop_xfade=25117
lovel=1
lpc=13kEQb9FgcEoKoZBB+41wYkU1kCzhWjAuK0cP18QrD9Ahp2/rW0OP89Gyb8nELU/FGWzvuPXv7+5C3JA2d6bwDTXrEBk+GHAujIlQP1zdr829Zc+aND9vrdPHz+ZZLg+
lpc_rms=-15.71
pitch_keycenter=c#5
sample=Soloviolin2_nonvib_FF_C#5.opus
</region>

<region>
hikey=c#6
hivel=127
lokey=c6
loop_end=238475
loop_mode=loop_continuous
loop_start=53120
loop_xfade=24369
lovel=1
lpc=8kAtQcnZicBAX1G/uqVbP43uVD+TRxA/hA97P7GgAz9dKl0/liIaP0VseT93EME+lbWiP46XnT7+yoU/oQz+Po93hT/wijw+T9vIP2GM+r4s9DdA2wSbwHtLs8A+1L9A
lpc_rms=-19.28
pitch_keycenter=c#6
sample=Soloviolin2_nonvib_FF_C#6.opus
</region>

<region>
hikey=d#4
hivel=127
lokey=d4
loop_end=237670
loop_mode=loop_continuous
loop_start=52941
loop_xfade=24287
lovel=1
lpc=dnsfQSuJ4MHjfhtCU/UKwlmeuEEOwVvBC2j8QIlUV8A5XSA/0aDsPb3aDsCPDXtAmvsgwAro6L+HCpNAzwujwLFct0BoI6nAlFogQOpykz4MrIe+IPU9v0zIRT8Pdio9
lpc_rms=-17.00
pitch_keycenter=d#4
sample=Soloviolin2_nonvib_FF_D#4.opus
</region>

<region>
hikey=d#5
hivel=127
lokey=d5
loop_end=236850
loop_mode=loop_continuous
loop_start=52758
loop_xfade=24203
lovel=1
lpc=7tGbQILBGsGu6iFB8bzTwDB3hUCTrD3AusSwPydUGz/zxq6/uv4NQHQ9RMAVgi1AcDXMv2azxD4Tn18/cV68vyOksT9ukFO/igHxP+MvHcBhQSFAtN7Iv32Nij8R8Zi+
lpc_rms=-17.95
pitch_keycenter=d#5
sample=Soloviolin2_nonvib_FF_D#5.opus
</region>

<region>
hikey=d#6
hivel=127
lokey=d6
loop_end=237561
loop_mode=loop_continuous
loop_start=52917
loop_xfade=24276
lovel=1
lpc=Nyq9QW/mnsHjdrVAsDvRQBc8bL/FsI8/1TbPPyyOlj4qFglAiG0BPVGHFUCJra++XK0sQD1/or6dmRtAQR/Bvg5eWkD6xyTAZlvyQEynucEs8ixBiAniQNo3KMFkLhtA
lpc_rms=-18.51
pitch_keycenter=d#6
sample=Soloviolin2_nonvib_FF_D#6.opus
</region>

<region>
hikey=f4
hivel=127
lokey=e4
loop_end=243491
loop_mode=loop_continuous
loop_start=54237
loop_xfade=24882
lovel=1
lpc=OZHzQA/mlMHq9q9B9HB6waG1FUFR7vTA/8WnQNU5pL/38iS/sQzaPSXozL/SPWNAjARKwLx5Dr6+fTxAQGZPwCGoP0AskQLAbC+eP0LwUL4dkji+IPHAPjfsDb89xJY+
lpc_rms=-20.53
pitch_keycenter=f4
sample=Soloviolin2_nonvib_FF_F4.opus
</region>

<region>
hikey=f5
hivel=127
lokey=e5
loop_end=242193
loop_mode=loop_continuous
loop_start=53948
loop_xfade=24749
lovel=1
lpc=xRuiQL50FMGRPidBbUcUwTgs4kAfcULAPj9fP4FTlr4MvcQ+NQtpvnYrQ71u9Do9UARQPRO/1r5t1vc/zWoIwCcaFkDzPxnAwK8kQAlAYb+OoQo/KVH4O5JtIr/iyB0/
lpc_rms=-17.90
pitch_keycenter=f5
sample=Soloviolin2_nonvib_FF_F5.opus
</region>

<region>
hikey=f6
hivel=127
lokey=e6
loop_end=236395
loop_mode=loop_continuous
loop_start=52657
loop_xfade=24157
lovel=1
lpc=VmKKQQ8aW8H3KrpAnuFHv4ah3b+Dra1A0kgHwLFvfj8z3Ds+/aV8P6OoUj5z7Aw/D0V+P0OkX778EtM/btaKv0nZa0DXrozBHdYmQRdH3757Xx/AIgWdQOnAusDuGhxA
lpc_rms=-24.39
pitch_keycenter=f6
sample=Soloviolin2_nonvib_FF_F6.opus
</region>

<region>
hivel=127
key=g3
loop_end=245642
loop_mode=loop_continuous
loop_start=54717
loop_xfade=25102
lovel=1
lpc=53cDQahNu8GoFwNCfGHwwflPpkHWrEHBDXHTQD5gR8AmOYI/U3cTP1wsEMB95hRAXKYGO3DdHMDAF3RA4aKSwD1etkDhVbfAY8yAQFCPzr8MVq4+tVvcvdNtYz3zm168
lpc_rms=-18.35
sample=Soloviolin2_nonvib_FF_G3.opus
</region>

<region>
hikey=g4
hivel=127
lokey=f#4
loop_end=235696
loop_mode=loop_continuous
loop_start=52501
loop_xfade=24085
lovel=1
lpc=gFj6QG1JlsF/IbBBc/J4wXmRHkFeSgPBiKyrQB3nCb/VVYi/2rYHvpbIn79pUDxAW3Kkv6NkJsDBfH9AR2N+wAmBfkCYmzLAx/GuP7NbxL5+TUo/7tcmv4MSC731/Ks+
lpc_rms=-20.43
pitch_keycenter=g4
sample=Soloviolin2_nonvib_FF_G4.opus
</region>

<region>
hikey=g5
hivel=127
lokey=f#5
loop_end=250339
loop_mode=loop_continuous
loop_start=55763
loop_xfade=25582
lovel=1
lpc=klYhQIrlN8DfZEpAlCsNwCZwEEDL6c6/WrEZQAldBsBSScQ/z/85v3FFED5ylrY+VHCTu6fy4j4GPgC/8VGiP9tUjr8ctcg/DaBUv2dPtD/vxZ+/PNy0PxDin78fKTs/
lpc_rms=-18.95
pitch_keycenter=g5
sample=Soloviolin2_nonvib_FF_G5.opus
</region>

<region>
hikey=g6
hivel=127
lokey=f#6
loop_end=244793
loop_mode=loop_continuous
loop_start=54528
loop_xfade=25015
lovel=1
lpc=j9+ZQfMaYMGOKrxA0VVWQMMtEz+gTaI/hXhzPzYTwr6OZK6+xQU5P092F0DKm8i+OclcQAcSAMC9VNdASkWQwRBCz0DraaVARS3zwHFSQ0BDrOC/++XDP9yjgzz/ETdA
lpc_rms=-19.15
pitch_keycenter=g6
sample=Soloviolin2_nonvib_FF_G6.opus
</region>
</group>